<?xml version="1.0" encoding="utf-8"?>
<!-- Generator: Adobe Illustrator 17.0.0, SVG Export Plug-In . SVG Version: 6.00 Build 0)  -->
<!DOCTYPE svg PUBLIC "-//W3C//DTD SVG 1.1//EN" "http://www.w3.org/Graphics/SVG/1.1/DTD/svg11.dtd">
<svg version="1.1" id="Shape_11_1_" xmlns="http://www.w3.org/2000/svg" xmlns:xlink="http://www.w3.org/1999/xlink" x="0px"
	 y="0px" width="69px" height="55px" viewBox="0 0 69 55" enable-background="new 0 0 69 55" xml:space="preserve">
<g id="Shape_11">
	<g>
		<path fill-rule="evenodd" clip-rule="evenodd" fill="#2494A2" d="M64.356,7.558v0.02H45.533v-3.76
			c-0.004-2.108-1.718-3.815-3.835-3.819H26.777C25.761,0,24.787,0.404,24.07,1.123c-0.721,0.713-1.127,1.684-1.128,2.696v3.76
			H4.644C2.079,7.578,0,9.649,0,12.204v37.822c0.007,2.745,2.24,4.968,4.996,4.975h58.962c2.766,0.018,5.024-2.2,5.042-4.955
			c0-0.007,0-0.013,0-0.02V12.184C69,9.629,66.921,7.558,64.356,7.558z M24.847,3.818c0.004-1.06,0.866-1.919,1.931-1.923h14.915
			c1.063,0.008,1.923,0.864,1.931,1.923v3.76H24.847V3.818z M1.924,12.514c0.007-1.697,1.387-3.072,3.092-3.079h58.962
			c1.704,0.007,3.084,1.382,3.092,3.079l-0.02,18.521c-0.007,1.494-1.221,2.702-2.72,2.709H38.481v-2.682
			c0-1.267-1.031-2.293-2.302-2.293h-3.364c-0.606-0.002-1.188,0.236-1.619,0.661c-0.427,0.429-0.665,1.008-0.663,1.612v2.682H4.644
			c-1.499-0.007-2.713-1.216-2.72-2.709V12.514z M32.397,33.744v-2.682c0.005-0.097,0.045-0.189,0.113-0.258
			c0.075-0.072,0.175-0.112,0.279-0.112h3.37c0.22,0,0.398,0.177,0.398,0.397v2.683L32.397,33.744z M36.557,35.641v2.683
			c0.001,0.104-0.04,0.204-0.113,0.278c-0.074,0.072-0.174,0.113-0.279,0.112h-3.35c-0.22,0-0.398-0.178-0.398-0.397v-2.676H36.557z
			 M67.076,50.026c-0.007,1.697-1.387,3.072-3.092,3.079H5.016c-1.704-0.007-3.084-1.382-3.092-3.079V34.769
			c0.791,0.57,1.743,0.876,2.72,0.872h25.875v2.683c0,1.266,1.031,2.293,2.302,2.293h3.37c0.606,0.001,1.188-0.237,1.619-0.661
			c0.426-0.429,0.665-1.009,0.663-1.612v-2.703h25.875c0.979,0.006,1.934-0.3,2.727-0.872V50.026z"/>
	</g>
</g>
</svg>
