<?xml version="1.0" encoding="utf-8"?>
<!-- Generator: Adobe Illustrator 17.0.0, SVG Export Plug-In . SVG Version: 6.00 Build 0)  -->
<!DOCTYPE svg PUBLIC "-//W3C//DTD SVG 1.1//EN" "http://www.w3.org/Graphics/SVG/1.1/DTD/svg11.dtd">
<svg version="1.1" id="Shape_14_1_" xmlns="http://www.w3.org/2000/svg" xmlns:xlink="http://www.w3.org/1999/xlink" x="0px"
	 y="0px" width="27px" height="25px" viewBox="0 0 27 25" enable-background="new 0 0 27 25" xml:space="preserve">
<g id="Shape_14">
	<g>
		<path fill-rule="evenodd" clip-rule="evenodd" fill="#FFFFFF" d="M23.625,20.165v-1.832H7.763L8.775,16.5l15.525-1.501L27,5H6.244
			L5.062,0H0v1.667h3.713l3.543,14.001l-2.193,4.333v2.5c0,1.333,1.182,2.5,2.531,2.5c1.35,0,2.531-1.167,2.531-2.5
			c0-1.333-1.182-2.5-2.531-2.5H20.25v2.5c0,1.333,1.182,2.5,2.531,2.5c1.35,0,2.531-1.167,2.531-2.5
			C25.312,21.332,24.637,20.499,23.625,20.165z"/>
	</g>
</g>
</svg>
