<?xml version="1.0" encoding="utf-8"?>
<!-- Generator: Adobe Illustrator 17.0.0, SVG Export Plug-In . SVG Version: 6.00 Build 0)  -->
<!DOCTYPE svg PUBLIC "-//W3C//DTD SVG 1.1//EN" "http://www.w3.org/Graphics/SVG/1.1/DTD/svg11.dtd">
<svg version="1.1" id="Shape_10_1_" xmlns="http://www.w3.org/2000/svg" xmlns:xlink="http://www.w3.org/1999/xlink" x="0px"
	 y="0px" width="74px" height="62px" viewBox="0 0 74 62" enable-background="new 0 0 74 62" xml:space="preserve">
<g id="Shape_10">
	<g>
		<path fill-rule="evenodd" clip-rule="evenodd" fill="#2494A2" d="M14.405,9.919l-1.027-6.2H9.69
			c-0.55-2.133-2.464-3.72-4.757-3.72C2.213-0.001,0,2.224,0,4.959c0,2.735,2.213,4.96,4.933,4.96c2.293,0,4.207-1.587,4.758-3.72
			h1.596l0.617,3.72h-0.047l6.378,32.26c-3.04,0.233-5.572,2.587-5.871,5.548c-0.175,1.743,0.395,3.487,1.564,4.784
			c1.17,1.3,2.838,2.049,4.572,2.049h2.467c0,4.103,3.319,7.44,7.4,7.44s7.4-3.337,7.4-7.44h13.567c0,4.103,3.319,7.44,7.4,7.44
			s7.4-3.337,7.4-7.44h4.933c0.682,0,1.233-0.555,1.233-1.241c0-0.685-0.551-1.24-1.233-1.24h-5.365
			c-1.019-2.886-3.753-4.96-6.968-4.96c-3.215,0-5.95,2.075-6.968,4.96h-14.43c-1.019-2.886-3.753-4.96-6.968-4.96
			c-3.215,0-5.95,2.075-6.968,4.96H18.5c-1.039,0-2.037-0.449-2.743-1.232c-0.712-0.792-1.046-1.811-0.939-2.872
			c0.187-1.871,1.907-3.336,3.913-3.336h0.976c0.017,0,0.031,0,0.048,0h48.093C71.241,44.639,74,41.865,74,38.455V9.919H14.405z
			 M4.933,7.439c-1.36,0-2.467-1.112-2.467-2.48s1.106-2.48,2.467-2.48c1.36,0,2.467,1.112,2.467,2.48S6.294,7.439,4.933,7.439z
			 M56.733,49.599c2.721,0,4.933,2.224,4.933,4.96c0,2.735-2.213,4.96-4.933,4.96c-2.721,0-4.933-2.225-4.933-4.96
			C51.8,51.823,54.013,49.599,56.733,49.599z M28.367,49.599c2.721,0,4.933,2.224,4.933,4.96c0,2.735-2.213,4.96-4.933,4.96
			c-2.721,0-4.933-2.225-4.933-4.96C23.433,51.823,25.646,49.599,28.367,49.599z M71.533,38.455c0,2.042-1.653,3.704-3.684,3.704
			H20.746l-5.883-29.76h56.67V38.455z"/>
	</g>
</g>
</svg>
