<?xml version="1.0" encoding="utf-8"?>
<!-- Generator: Adobe Illustrator 17.0.0, SVG Export Plug-In . SVG Version: 6.00 Build 0)  -->
<!DOCTYPE svg PUBLIC "-//W3C//DTD SVG 1.1//EN" "http://www.w3.org/Graphics/SVG/1.1/DTD/svg11.dtd">
<svg version="1.1" id="Shape_8_1_" xmlns="http://www.w3.org/2000/svg" xmlns:xlink="http://www.w3.org/1999/xlink" x="0px" y="0px"
	 width="68px" height="68px" viewBox="0 0 68 68" enable-background="new 0 0 68 68" xml:space="preserve">
<g id="Shape_8">
	<g>
		<path fill-rule="evenodd" clip-rule="evenodd" fill="#2494A2" d="M67.992,34.025c-0.134-5.072-1.112-9.944-3.255-14.481
			c1.768-3.72,3.242-7.482,3.242-9.636c0-5.433-4.42-9.863-9.872-9.863c-3.282,0-6.188,1.619-7.983,4.095
			c-8.265-4.497-16.221-4.068-16.261-4.082C23.709-0.825,0,8.249,0,34.025c0,20.142,16.81,34.342,33.996,33.967
			C58.67,67.443,68.314,47.127,67.992,34.025z M27.794,2.856c-2.853,2.717-5.237,7.28-6.845,13.036
			c-3-1.352-5.787-3.173-8.265-5.421C16.985,6.576,22.182,3.966,27.794,2.856z M22.477,18.875c3.309,1.191,6.818,1.861,10.408,1.967
			v12.086H20.829C20.923,27.882,21.499,23.105,22.477,18.875z M11.104,11.996c2.786,2.543,5.921,4.564,9.283,6.049
			c-1.045,4.443-1.661,9.489-1.741,14.883H2.224C2.491,25.031,5.612,17.671,11.104,11.996z M21.686,47.127
			c1.942,0,3.523,1.579,3.523,3.52c0,1.94-1.581,3.52-3.523,3.52c-1.942,0-3.523-1.58-3.523-3.52
			C18.163,48.707,19.744,47.127,21.686,47.127z M2.224,35.11h16.436c0.054,3.52,0.335,6.959,0.857,10.251
			c-2.076,0.857-3.536,2.904-3.536,5.273c0,0.549,0.107,1.057,0.241,1.553c-1.822,1.124-3.536,2.409-5.117,3.855
			C5.612,50.38,2.491,43.019,2.224,35.11z M12.685,57.58c1.406-1.271,2.92-2.422,4.541-3.426c1.045,1.338,2.679,2.368,5.117,2.141
			c1.514,3.895,3.389,6.906,5.492,8.9C22.209,64.097,16.998,61.488,12.685,57.58z M32.898,65.664
			c-3.175-0.669-6.188-4.229-8.466-10.038c1.768-0.977,3.268-2.864,2.92-5.554c1.822-0.388,3.67-0.615,5.545-0.682V65.664z
			 M32.898,35.11v12.085c-2.09,0.067-4.152,0.321-6.175,0.763c-0.964-1.794-2.84-3.038-5.023-3.038c-0.013,0-0.013,0-0.027,0
			c-0.496-3.158-0.763-6.451-0.817-9.823h12.042V35.11z M32.898,18.662c-3.416-0.121-6.738-0.763-9.872-1.914
			c2.183-7.95,5.8-13.517,9.872-14.374V18.662z M58.107,2.253c4.233,0,7.675,3.44,7.675,7.668c0,3.306-4.889,12.621-7.675,17.532
			c-2.786-4.898-7.675-14.226-7.675-17.532C50.432,5.693,53.874,2.253,58.107,2.253z M50.231,16.748
			c2.438,5.741,7.89,15.056,7.89,15.056s3.362-5.742,5.358-9.677c1.393,3.426,2.156,7.053,2.277,10.801H49.333
			c-0.08-5.407-0.697-10.453-1.741-14.896C48.489,17.644,49.36,17.216,50.231,16.748z M49.039,6.054
			c-0.509,1.191-0.79,2.489-0.79,3.867c0,1.191,0.455,2.878,1.165,4.778c-0.777,0.428-1.567,0.816-2.371,1.191
			c-1.621-5.755-3.992-10.292-6.831-13.009C43.292,3.471,46.266,4.555,49.039,6.054z M35.081,2.373
			c4.072,0.857,7.675,6.41,9.872,14.348c-3.148,1.164-6.483,1.807-9.872,1.927V2.373z M35.081,20.843
			c3.563-0.12,7.073-0.789,10.408-1.98c0.978,4.229,1.567,9.02,1.648,14.066H35.081V20.843z M35.081,35.11h12.055
			c-0.08,5.045-0.656,9.823-1.634,14.052c-3.322-1.191-6.818-1.847-10.421-1.967V35.11z M35.081,65.664V49.389
			c3.416,0.12,6.738,0.763,9.872,1.914C42.77,59.253,39.153,64.807,35.081,65.664z M40.185,65.182
			c2.853-2.704,5.237-7.267,6.845-13.035c3,1.351,5.787,3.172,8.278,5.42C51.008,61.461,45.797,64.071,40.185,65.182z
			 M56.888,56.054c-2.786-2.543-5.92-4.577-9.296-6.049c1.045-4.443,1.661-9.489,1.741-14.882h16.436
			C65.501,43.019,62.38,50.38,56.888,56.054z M62.5,9.922c0-2.409-1.969-4.389-4.393-4.389c-2.424,0-4.38,1.967-4.38,4.389
			s1.969,4.377,4.38,4.377C60.531,14.299,62.5,12.331,62.5,9.922z M55.91,9.922c0-1.217,0.991-2.195,2.197-2.195
			c1.206,0,2.197,0.978,2.197,2.195c0,1.218-0.978,2.195-2.197,2.195C56.901,12.117,55.91,11.14,55.91,9.922z"/>
	</g>
</g>
</svg>
