<?xml version="1.0" encoding="utf-8"?>
<!-- Generator: Adobe Illustrator 17.0.0, SVG Export Plug-In . SVG Version: 6.00 Build 0)  -->
<!DOCTYPE svg PUBLIC "-//W3C//DTD SVG 1.1//EN" "http://www.w3.org/Graphics/SVG/1.1/DTD/svg11.dtd">
<svg version="1.1" id="Shape_9_1_" xmlns="http://www.w3.org/2000/svg" xmlns:xlink="http://www.w3.org/1999/xlink" x="0px" y="0px"
	 width="80px" height="67px" viewBox="0 0 80 67" enable-background="new 0 0 80 67" xml:space="preserve">
<g id="Shape_9">
	<g>
		<path fill-rule="evenodd" clip-rule="evenodd" fill="#2494A2" d="M79.727,29.517c-0.391-0.436-1.062-0.469-1.497-0.08l-2.08,1.858
			L64.87,20.161c-0.416-0.41-1.086-0.409-1.499,0.006c-0.412,0.413-0.41,1.081,0.006,1.492L74.57,32.707l-5.541,4.951l-18.43-18.584
			l18.32-17.253c0.425-0.401,0.444-1.069,0.041-1.492c-0.404-0.425-1.074-0.44-1.499-0.042L48.355,18.282
			c-0.207,0.195-0.327,0.464-0.332,0.748c-0.005,0.284,0.106,0.557,0.305,0.76l1.697,1.712l-3.739,3.895l-7.212-0.765
			c-0.319-0.038-0.632,0.076-0.859,0.3l-2.931,2.893l-5.449-5.359l1.836-1.851c0.199-0.201,0.311-0.476,0.305-0.76
			c-0.005-0.283-0.124-0.553-0.332-0.748L12.539,1.112c-0.424-0.399-1.096-0.383-1.499,0.043c-0.403,0.422-0.384,1.091,0.041,1.492
			l12.893,12.14L5.093,33.231L1.77,30.262c-0.435-0.388-1.106-0.354-1.497,0.08c-0.391,0.434-0.355,1.101,0.081,1.49l9.954,8.894
			c0.201,0.181,0.456,0.27,0.708,0.27c0.275,0,0.548-0.105,0.755-0.313l1.803-1.818l9.914,9.734l-1.821,1.844
			c-0.408,0.414-0.406,1.076,0.006,1.485l3.717,3.701c0,0,0.002,0.001,0.002,0.002c0,0.001,0.001,0.002,0.002,0.002l3.718,3.659
			l3.713,3.697l3.717,3.701c0.207,0.206,0.478,0.309,0.75,0.309c0.271,0,0.543-0.103,0.75-0.309l1.923-1.915l1.955,1.92
			c0.206,0.203,0.475,0.304,0.744,0.304c0.271,0,0.543-0.103,0.75-0.309l2.967-2.954l0.438,0.436
			c0.207,0.206,0.478,0.309,0.75,0.309c0.271,0,0.543-0.103,0.75-0.309l2.967-2.954l0.438,0.436c0.207,0.206,0.478,0.309,0.75,0.309
			c0.271,0,0.543-0.103,0.75-0.309l2.967-2.954l0.437,0.435c0.207,0.206,0.478,0.309,0.75,0.309c0.271,0,0.543-0.104,0.75-0.309
			l3.717-3.7c0.415-0.413,0.415-1.08,0-1.492l-5.519-5.495l9.975-10.536l1.934,1.95c0.207,0.209,0.48,0.313,0.755,0.313
			c0.252,0,0.507-0.089,0.708-0.27l9.954-8.894C80.082,30.618,80.118,29.951,79.727,29.517z M10.971,38.483l-4.297-3.84
			l18.841-18.404l3.887,3.66L10.971,38.483z M29.4,25.006l-1.949,1.987c-0.216-0.413-0.476-0.803-0.777-1.165l1.769-1.761
			L29.4,25.006z M26.108,30.104c0,2.547-2.081,4.618-4.638,4.618c-1.018,0-1.995-0.333-2.793-0.933l6.494-6.466
			C25.773,28.118,26.108,29.091,26.108,30.104z M16.122,38.403l-1.046-1.027l2.098-2.09c0.375,0.309,0.78,0.574,1.211,0.795
			c-0.336,0.344-0.683,0.702-1.032,1.06C16.931,37.575,16.52,37.996,16.122,38.403z M26.13,53.381l-2.216-2.206l1.082-1.095
			l2.229,2.188L26.13,53.381z M29.852,57.052l-2.215-2.179l1.106-1.116l2.224,2.184L29.852,57.052z M33.572,60.749l-2.218-2.208
			l1.123-1.116l2.233,2.192L33.572,60.749z M37.29,64.449l-2.218-2.207l1.148-1.143l2.233,2.193L37.29,64.449z M59.591,54.684
			l-2.218,2.208l-0.437-0.435l-4.28-4.261c0,0-0.001,0-0.001-0.001l-1.301-1.295c-0.414-0.413-1.084-0.413-1.499,0
			c-0.414,0.412-0.414,1.079,0,1.492l4.833,4.811l-2.218,2.208l-6.02-5.992c-0.414-0.413-1.085-0.413-1.499,0s-0.414,1.08,0,1.493
			l1.303,1.297l3.529,3.514l-2.218,2.208l-3.481-3.464l-1.237-1.232c0,0-0.001,0-0.001-0.001l-1.301-1.295
			c-0.415-0.413-1.085-0.413-1.499,0c-0.415,0.413-0.415,1.08,0,1.493l2.433,2.422l2.399,2.388l-2.223,2.213L17.632,39.885
			c0.402-0.411,0.818-0.839,1.244-1.276c0.624-0.641,1.239-1.274,1.786-1.827c0.267,0.031,0.535,0.051,0.808,0.051
			c3.728,0,6.759-3.018,6.759-6.729c0-0.277-0.021-0.552-0.055-0.824l2.736-2.79l2.87,2.821l-10.008,9.88
			c-0.215,0.212-0.329,0.505-0.312,0.807c0.017,0.302,0.161,0.581,0.399,0.768c0.247,0.197,6.053,4.574,16.133-5.596L59.591,54.684z
			 M54.821,46.951L40.726,32.918c-0.202-0.202-0.454-0.313-0.766-0.309c-0.287,0.004-0.559,0.124-0.756,0.333
			c-6.503,6.888-10.859,7.097-12.824,6.646l12.97-12.804l5.086,0.54l-0.763,0.795c-0.405,0.422-0.389,1.09,0.033,1.493
			c0.423,0.402,1.093,0.388,1.499-0.034l6.094-6.346l13.374,13.314L54.821,46.951z M56.675,16.651c0,1.819,1.486,3.298,3.313,3.298
			c1.827,0,3.313-1.48,3.313-3.298s-1.486-3.298-3.313-3.298C58.161,13.354,56.675,14.833,56.675,16.651z M61.181,16.651
			c0,0.654-0.535,1.187-1.193,1.187s-1.193-0.533-1.193-1.187c0-0.654,0.535-1.187,1.193-1.187S61.181,15.997,61.181,16.651z"/>
	</g>
</g>
</svg>
